<svg width="319" height="264" viewBox="0 0 319 264" fill="none" xmlns="http://www.w3.org/2000/svg">
<path d="M166.931 261.93C179.489 253.942 192.084 245.991 204.642 238.003C210.326 234.399 216.085 230.832 221.621 226.968C234.773 217.791 247.108 207.351 258.069 195.611C279.766 172.316 296.263 144.71 306.703 114.653C315.211 90.0947 318.852 64.1987 318.852 38.2655V-11.1859C318.852 -17.8364 314.208 -23.6323 307.929 -25.5272C303.396 -26.9019 298.9 -28.3137 294.553 -30.1342C295.742 -29.6512 296.931 -29.1311 298.12 -28.6481C290.355 -31.9547 283.073 -36.1902 276.385 -41.3174L279.395 -38.9768C272.781 -44.104 266.837 -50.0114 261.71 -56.6247L264.05 -53.6153C258.923 -60.3029 254.651 -67.6222 251.344 -75.3873C251.827 -74.1983 252.347 -73.0094 252.83 -71.8205C251.715 -74.4956 250.675 -77.2449 249.783 -79.9943C247.777 -86.2732 242.167 -90.9174 235.442 -90.9174H102.098C95.9677 -90.9174 89.8002 -91.1032 83.6698 -90.9174H83.4098C76.6478 -90.9174 71.0748 -86.2732 69.0685 -79.9943C68.1768 -77.2078 67.1736 -74.4956 66.0219 -71.8205C66.5049 -73.0094 67.025 -74.1983 67.508 -75.3873C64.2014 -67.6222 59.9287 -60.3401 54.8015 -53.6153L57.1422 -56.6247C52.015 -50.0114 46.0704 -44.104 39.4571 -38.9768L42.4665 -41.3174C35.7789 -36.1902 28.4596 -31.9547 20.7317 -28.6481C21.9206 -29.1311 23.1095 -29.6512 24.2984 -30.1342C19.9143 -28.3137 15.4559 -26.9019 10.9231 -25.5272C4.6442 -23.6323 0 -17.8364 0 -11.1859V33.6213C0 41.4978 0 49.3744 0.557303 57.2509C1.74622 73.2641 4.45843 89.2402 8.95401 104.659C17.8709 135.273 33.3267 163.473 53.8355 187.809C69.7744 206.72 88.9828 222.027 109.789 235.216L150.918 261.298C151.252 261.521 151.624 261.744 151.958 261.967C158.534 266.128 168.64 263.565 172.281 256.617C176.145 249.261 173.953 240.752 166.931 236.294C160.243 232.058 153.556 227.823 146.905 223.587C138.36 218.163 129.852 212.776 121.306 207.351C115.325 203.562 109.492 199.512 103.844 195.202L106.854 197.543C92.8096 186.657 80.1774 174.025 69.2914 159.981L71.6321 162.99C60.5603 148.612 51.3462 132.858 44.2499 116.139C44.7329 117.328 45.253 118.517 45.736 119.706C38.4911 102.504 33.5497 84.4473 31.0604 65.9449C31.2461 67.2452 31.4319 68.5828 31.5805 69.8831C29.9829 57.8454 29.7228 45.8076 29.7228 33.7327V-11.0373C26.0818 -6.24448 22.4408 -1.48883 18.7997 3.30398C31.6177 -0.55999 44.027 -5.68717 54.913 -13.5266C67.8052 -22.815 78.8027 -34.2583 86.9765 -47.9308C91.4721 -55.4358 95.076 -63.6096 97.751 -71.932C92.9582 -68.2909 88.2026 -64.6499 83.4098 -61.0088H216.754C222.884 -61.0088 229.052 -60.8602 235.182 -61.0088H235.442C230.649 -64.6499 225.894 -68.2909 221.101 -71.932C230.426 -42.8407 251.604 -17.5392 279.395 -4.46111C286.082 -1.30305 292.956 1.14907 300.052 3.30398C296.411 -1.48883 292.77 -6.24448 289.129 -11.0373V41.6465C289.129 51.0835 288.497 60.5204 287.271 69.8831C287.457 68.5828 287.643 67.2452 287.792 65.9449C285.265 84.4102 280.324 102.504 273.116 119.706C273.599 118.517 274.119 117.328 274.602 116.139C267.506 132.858 258.292 148.612 247.22 162.99L249.56 159.981C238.674 174.025 226.042 186.657 211.998 197.543L215.008 195.202C206.685 201.63 197.843 207.166 189 212.813C179.192 219.055 169.383 225.259 159.575 231.501C157.048 233.099 154.485 234.733 151.958 236.331C148.726 238.375 146.162 241.458 145.122 245.211C144.156 248.778 144.602 253.496 146.608 256.654C150.843 263.193 159.909 266.388 166.931 261.93Z" fill="#1E98EA"/>
<path d="M83.7061 85.7849L121.863 123.942L127.287 129.366C132.972 135.051 142.632 135.051 148.316 129.366L177.779 99.9033L224.407 53.2755L235.144 42.5382C240.643 37.0394 241.051 26.9337 235.144 21.5092C229.199 16.0477 219.985 15.639 214.115 21.5092L184.652 50.972L138.025 97.5998L127.287 108.337H148.316L110.159 70.1804L104.735 64.756C99.2363 59.2573 89.1306 58.8486 83.7061 64.756C78.2446 70.7006 77.8359 79.8775 83.7061 85.7849Z" fill="#1E98EA"/>
</svg>
